<?xml version="1.0" encoding="UTF-8"?>
<svg enable-background="new 0 0 78.3 55.5" version="1.1" viewBox="0 0 78.3 55.5" xmlns="http://www.w3.org/2000/svg">
 <style type="text/css">.st0{fill:#E6E4D8;} .st1{fill:#FFFFFF;stroke:#231F20;stroke-miterlimit:10;} .st2{fill:#231F20;stroke:#231F20;stroke-miterlimit:10;} .st3{enable-background:new ;} .st4{fill:#231F20;}</style>
 <polygon class="st0" points="75.1 52.7 39.2 52.7 3.2 52.7 3.2 34.7 3.2 16.7 39.2 2.8 75.1 16.7 75.1 34.7"/>
 <polyline class="st1" points="75.1 18.7 39.2 18.7 3.2 18.7"/>
 <polyline class="st1" points="75.1 48.7 39.2 48.7 3.2 48.7"/>
 <rect class="st2" x="6.6" y="19.6" width="7.2" height="28.8"/>
 <rect class="st2" x="18.2" y="19.6" width="7.2" height="28.8"/>
 <rect class="st2" x="29.8" y="19.6" width="7.2" height="28.8"/>
 <rect class="st2" x="41.4" y="19.6" width="7.2" height="28.8"/>
 <rect class="st2" x="53" y="19.6" width="7.2" height="28.8"/>
 <rect class="st2" x="64.6" y="19.6" width="7.2" height="28.8"/>
 <g class="st3">
  <path class="st4" d="m28.1 15.8c0.1 0.5 0.1 0.6 0.4 0.7 0.1 0 0.3 0.1 0.4 0.1s0.1 0 0.1 0.1-0.1 0.1-0.2 0.1h-1.9c-0.1 0-0.2 0-0.2-0.1 0 0 0-0.1 0.1-0.1s0.1-0.1 0.1-0.4l-0.3-2.5-1.4 2.7c-0.2 0.4-0.2 0.4-0.3 0.4s-0.1-0.1-0.3-0.4c-0.2-0.4-0.7-1.2-0.9-1.6-0.1-0.2-0.4-0.8-0.6-1l-0.2 2v0.6c0 0.2 0.1 0.3 0.2 0.3h0.3c0.1 0 0.1 0 0.1 0.1s0 0.1-0.1 0.1h-1.7c-0.1 0-0.2 0-0.2-0.1 0 0 0-0.1 0.1-0.1h0.2c0.2 0 0.3-0.2 0.3-0.7l0.6-4.3c0-0.2 0.1-0.3 0.1-0.3 0.1 0 0.1 0.1 0.3 0.3l2 3.4 1.9-3.4c0.1-0.2 0.2-0.3 0.2-0.3 0.1 0 0.1 0.1 0.1 0.3l0.8 4.1z"/>
  <path class="st4" d="m30.8 14.5c0 1 0.1 1.4 0.5 1.6 0.3 0.2 0.5 0.2 0.7 0.2s0.5 0 0.8-0.3c0.4-0.3 0.4-1.1 0.4-1.8v-2.2c0-0.3-0.1-0.4-0.3-0.4h-0.3c-0.1 0-0.1 0-0.1-0.1s0-0.1 0.2-0.1h1.8c0.1 0 0.1 0 0.1 0.1 0 0 0 0.1-0.1 0.1h-0.2c-0.2 0-0.2 0.1-0.3 0.4v2.1c0 0.8 0 1.7-0.7 2.2-0.4 0.4-1 0.5-1.5 0.5-0.6 0-1.2-0.1-1.7-0.5-0.4-0.3-0.7-0.8-0.7-1.8v-2.6c0-0.2-0.1-0.3-0.2-0.3h-0.3c-0.1 0-0.1 0-0.1-0.1s0.1-0.1 0.2-0.1h2.2c0.1 0 0.2 0 0.2 0.1s0 0.1-0.1 0.1h-0.2c-0.2 0-0.2 0.2-0.2 0.4v2.5z"/>
  <path class="st4" d="m35.3 16.6c-0.1 0-0.2-0.1-0.2-0.3v-1c0-0.1 0-0.2 0.1-0.2l0.1 0.1v0.2c0.1 0.6 0.6 0.9 1.2 0.9 0.7 0 0.9-0.3 0.9-0.6s-0.1-0.5-0.7-0.9l-0.4-0.3c-0.9-0.6-1.1-1.1-1.1-1.7 0-0.8 0.7-1.5 1.8-1.5 0.3 0 0.5 0 0.8 0.1 0.1 0 0.2 0 0.3 0.1 0.1 0 0.1 0 0.1 0.1v1c0 0.1 0 0.2-0.1 0.2 0 0-0.1 0-0.1-0.1s0-0.2-0.1-0.4-0.5-0.5-1-0.5c-0.6 0-0.8 0.3-0.8 0.6 0 0.2 0.1 0.5 0.6 0.8l0.4 0.2c1 0.7 1.3 1.1 1.3 1.8 0 0.5-0.2 1-0.7 1.3-0.4 0.2-0.9 0.3-1.2 0.3-0.5 0-0.9-0.1-1.2-0.2z"/>
  <path class="st4" d="m39.8 13.4v-1.5c0-0.2-0.1-0.3-0.3-0.4h-0.2c-0.1 0-0.1 0-0.1-0.1s0-0.1 0.2-0.1h3.5v0.1s0 0.1 0 0.3c0 0.1 0 0.4-0.1 0.7 0 0.1 0 0.1-0.1 0.1 0 0-0.1 0-0.1-0.1v-0.2c0-0.2-0.1-0.3-0.5-0.3h-1.1s-0.1 0-0.1 0.1v1.5s0 0.1 0.1 0.1h1c0.3 0 0.4 0 0.5-0.2 0-0.1 0.1-0.1 0.1-0.1v0.1c0 0.1 0 0.3-0.1 0.6v0.6c0 0.1 0 0.1-0.1 0.1 0 0-0.1 0-0.1-0.1v-0.2c0-0.2-0.1-0.3-0.5-0.3h-1v1.5c0 0.5 0.1 0.6 0.9 0.6 0.2 0 0.5 0 0.7-0.1s0.3-0.2 0.3-0.6c0-0.1 0-0.1 0.1-0.1s0.1 0.1 0.1 0.2c0 0.3-0.1 0.8-0.1 0.9 0 0.2-0.1 0.2-0.4 0.2h-3.2c-0.1 0-0.2 0-0.2-0.1 0 0 0-0.1 0.1-0.1h0.2c0.2 0 0.2-0.3 0.2-0.7v-2.4z"/>
  <path class="st4" d="m45.4 14.5c0 1 0.1 1.4 0.5 1.6 0.3 0.2 0.5 0.2 0.7 0.2s0.5 0 0.8-0.3c0.4-0.3 0.4-1.1 0.4-1.8v-2.2c0-0.3-0.1-0.4-0.3-0.4h-0.3c-0.1 0-0.1 0-0.1-0.1s0-0.1 0.2-0.1h1.8c0.1 0 0.1 0 0.1 0.1 0 0 0 0.1-0.1 0.1h-0.2c-0.2 0-0.2 0.1-0.3 0.4v2.1c0 0.8 0 1.7-0.7 2.2-0.4 0.4-1 0.5-1.5 0.5-0.6 0-1.2-0.1-1.7-0.5-0.4-0.3-0.7-0.8-0.7-1.8v-2.6c0-0.2-0.1-0.3-0.2-0.3h-0.3c-0.1 0-0.1 0-0.1-0.1s0.1-0.1 0.2-0.1h2.2c0.1 0 0.2 0 0.2 0.1s0 0.1-0.1 0.1h-0.2c-0.2 0-0.2 0.2-0.2 0.4v2.5z"/>
  <path class="st4" d="m56 15.8c0.1 0.5 0.1 0.6 0.4 0.7 0.1 0 0.3 0.1 0.4 0.1s0.1 0 0.1 0.1-0.1 0.1-0.2 0.1h-1.9c-0.1 0-0.2 0-0.2-0.1 0 0 0-0.1 0.1-0.1s0.1-0.1 0.1-0.4l-0.3-2.5-1.4 2.7c-0.2 0.4-0.2 0.4-0.3 0.4s-0.1-0.1-0.3-0.4c-0.2-0.4-0.7-1.2-0.9-1.6-0.1-0.2-0.4-0.8-0.6-1l-0.2 2v0.6c0 0.2 0.1 0.3 0.2 0.3h0.3c0.1 0 0.1 0 0.1 0.1s0 0.1-0.1 0.1h-1.7c-0.1 0-0.2 0-0.2-0.1 0 0 0-0.1 0.1-0.1h0.2c0.2 0 0.3-0.2 0.3-0.7l0.6-4.3c0-0.2 0.1-0.3 0.1-0.3 0.1 0 0.1 0.1 0.3 0.3l2 3.4 1.9-3.4c0.1-0.2 0.2-0.3 0.2-0.3 0.1 0 0.1 0.1 0.1 0.3l0.8 4.1z"/>
 </g>
</svg>
